<?xml version="1.0" encoding="UTF-8"?><svg id="Layer_1" xmlns="http://www.w3.org/2000/svg" width="153.97" height="73.99" viewBox="0 0 153.97 73.99"><g><path d="m26.55,28.46v.22h-8.39v-.22c.67.02,1.34-.05,1.99-.2.47-.14.77-.6.7-1.09-.03-.45-.15-.89-.33-1.3-.04-.05-.06-.11-.07-.17l-2.11-4.99h-9.31l-1.81,4.57c-.24.54-.38,1.11-.42,1.7-.06.46.15.92.54,1.18.48.23,1.01.33,1.53.3v.22H2.84v-.22c.76-.03,1.49-.31,2.07-.8.6-.61,1.06-1.34,1.35-2.15L14.45,5.12l8.65,20.31c.29.73.68,1.41,1.15,2.02.27.35.63.62,1.03.79.41.12.84.2,1.27.22Zm-8.37-8.11l-4.63-10.94h-.07l-4.32,10.94h9.01Z"/><path d="m28.25,5.46h-.35v-.34h8.9c1.24-.03,2.48.17,3.64.61.88.33,1.68.86,2.32,1.54.52.57.93,1.25,1.19,1.98.23.66.35,1.35.36,2.05,0,1.8-.89,3.48-2.38,4.48-.91.6-1.94,1-3.03,1.15v.06c1.78.91,3.26,2.33,4.26,4.06l2.14,3.16c1.05,1.61,2.17,3.41,2.8,3.83.63.43.97-.04,1.99-1.43v1.06s-3.21,2.02-5.19.28c-.87-.77-4.81-6.58-4.81-6.58-.62-.95-2.29-3.64-5.21-4.18-.52-.08-1.05-.11-1.58-.1v8.74c0,1.67.93,2.54,2.79,2.59v.26h-8.18v-.26c.47-.01.93-.1,1.36-.26.4-.16.75-.44.99-.8.28-.46.42-.99.39-1.53V8.02c.08-.74-.2-1.48-.75-1.98-.47-.37-1.04-.58-1.64-.58Zm5.04,11.44h1.47c1.29.06,2.57-.14,3.78-.61,2.21-1.02,2.8-3.71,2.8-4.8,0-.92-.21-1.83-.6-2.66-.44-.92-1.14-1.68-2.02-2.19-1.17-.65-2.5-.95-3.83-.89-.54-.01-1.08.04-1.6.14v11.01Z"/><path d="m72.1,10.16c-2.95.74-1.69-5.48-8.14-5.23-1.43.02-2.84.31-4.16.86-1.28.56-2.42,1.38-3.36,2.42-.99,1.18-1.74,2.53-2.23,3.99-.53,1.52-.8,3.13-.79,4.74-.01,1.57.24,3.12.76,4.6.48,1.37,1.23,2.62,2.22,3.68.94,1.02,2.09,1.83,3.38,2.36,1.35.55,2.8.82,4.26.8,1.46-.03,2.91-.27,4.29-.73,1.57-.49,3.01-1.32,4.22-2.42v.91c-1.32.97-2.74,1.78-4.25,2.42-1.54.56-3.17.82-4.81.77-1.9.02-3.78-.32-5.54-1.02-1.58-.62-3.02-1.55-4.23-2.74-1.12-1.11-2.01-2.43-2.62-3.89-.59-1.41-.89-2.92-.89-4.45,0-2.26.63-4.48,1.85-6.39,1.23-1.97,2.96-3.58,5.01-4.67,2.1-1.15,4.46-1.74,6.86-1.72,2.08.06,4.14.44,6.1,1.14,4.05,1.7,3.1,4.32,2.07,4.58Z"/><path d="m96.63,8.01v17.83c0,1.73.88,2.59,2.63,2.59v.25h-7.82v-.25c.71.04,1.41-.19,1.96-.65.5-.5.76-1.2.71-1.91v-8.49h-14.07v8.45c-.04.71.22,1.41.73,1.91.53.47,1.23.71,1.94.68v.25h-7.83v-.25c.71.08,1.42-.16,1.93-.67.51-.5.76-1.21.69-1.92V8.01c0-1.75-.87-2.62-2.62-2.62v-.28h7.83v.28c-.75-.07-1.49.2-2.03.73-.44.53-.67,1.2-.64,1.89v9h14.07v-9c.03-.69-.21-1.36-.65-1.88-.53-.53-1.26-.8-2.01-.74v-.28h7.82v.28c-.74-.07-1.48.2-2,.73-.44.53-.67,1.2-.64,1.89Z"/><path d="m109.59,5.12v.27c-.7-.02-1.39.19-1.95.6-.57.48-.88,1.22-.8,1.97v17.89c-.07.76.26,1.5.85,1.98.55.4,1.22.62,1.9.62v.26h-8.15v-.26c.69.02,1.37-.19,1.93-.6.58-.49.88-1.24.81-1.99V7.95c.09-.77-.21-1.53-.81-2.02-.57-.37-1.25-.56-1.93-.54v-.27h8.15Z"/><path d="m134.7,5.12v.27c-.59.05-1.15.26-1.62.61-.45.35-.82.79-1.1,1.29-.3.53-1.15,2.29-1.2,2.49l-7.43,19.54h-.24l-8.76-21.14c0-.07-.03-.13-.07-.19-.25-.77-.71-1.46-1.33-1.98-.6-.43-1.33-.65-2.07-.61v-.27h8.45v.27c-.59.04-1.17.16-1.71.38-.43.19-.65.65-.65,1.38.05.4.14.8.28,1.18.02.05.04.11.06.17.02.06.03.1.04.14l6.91,16.97h.07l5.92-15.83c.33-.75.54-1.56.61-2.38,0-.84-.19-1.38-.58-1.6-.54-.26-1.13-.4-1.74-.4v-.27h6.18Z"/><path d="m136.06,5.39v-.27h15.32v4.26h-.24c0-2.51-1.44-3.9-4.33-3.9h-5.36v11.25h4.71c.86.07,1.73,0,2.57-.22.73-.28,1.08-1.27,1.18-2.27h.26v5.34h-.26c-.1-.61-.13-2.01-1.24-2.38-.76-.09-1.52-.13-2.29-.11h-4.94v8.56c-.02.69.11,1.37.38,2,.26.46.87.69,1.82.69h3.82c.77.02,1.54-.1,2.27-.37.59-.33,1.08-.81,1.41-1.39.44-.78.8-1.6,1.1-2.44h.22l-1.1,4.56h-15.31v-.26h.35c.59-.02,1.15-.23,1.61-.61.56-.5.85-1.24.79-1.98V8.08c.02-.67-.17-1.33-.53-1.89-.44-.57-1.14-.88-1.86-.8h-.35Z"/></g><g><path d="m4.17,51.89h.17c0,.34.1.68.31.95.37.48,1.32.41,1.43.41l10.81-.55c.42,0,.83-.13,1.18-.36.33-.22.5-.71.51-1.46h.16v5.14h-.16c.06-.5-.13-1.01-.51-1.34s-.91-.46-1.4-.33l-11.19.55v.04l13.25,5.6-12.77,5.3-.47.19,10.79.61c.44.04.89,0,1.32-.11.28-.08.52-.26.67-.5.16-.32.27-.67.3-1.02h.16v3.8h-.16c.02-.41-.1-.82-.34-1.16-.21-.26-.49-.44-.82-.52-.44-.1-.89-.16-1.34-.19l-10.76-.64c-.21.05-.4.15-.55.3-.32.36-.48.84-.43,1.31h-.17v-2.41c0-.42.25-.79.64-.95l11.52-4.75-11.48-4.85c-.41-.17-.68-.57-.68-1.02v-2.06Z"/><path d="m4.33,37.7c.53-.22,1.21.26,1.51.5l5.31,3.86h5.83c.45.03.89-.16,1.17-.51.27-.36.41-.79.41-1.23h.16v5.03h-.16c.01-.44-.13-.87-.4-1.21-.31-.32-.74-.48-1.18-.45h-5.58l-5.55,4.04c-.47.3-.88.7-1.2,1.16-.22.43-.33.9-.32,1.38h-.17v-5.64h.17c-.04.4.08.8.34,1.1.16.14.37.23.59.24.33-.05.64-.2.89-.42l4.63-3.43-3.79-2.77c-1.05-.8-1.78-.36-2.55-.5-.26-.05-.46-.27-.48-.54-.02-.27.13-.52.38-.62Z"/></g><g><path d="m27.91,39.66v-.34h10.41c1.56-.03,3.11.19,4.6.65,1.21.37,2.34.98,3.32,1.78.84.69,1.52,1.56,1.98,2.54.44.93.66,1.95.66,2.98.05,1.23-.16,2.46-.61,3.6-.44.98-1.1,1.84-1.93,2.51-1.02.81-2.19,1.4-3.45,1.75-1.6.46-3.25.68-4.92.65-.59,0-1.72-.08-3.4-.24v9.38c0,2.07,1.15,3.14,3.45,3.2v.32h-10.11v-.32c.88.01,1.74-.26,2.45-.78.69-.61,1.04-1.51.96-2.42v-22.03c.02-.58-.1-1.16-.35-1.68-.18-.39-.46-.72-.81-.96-.32-.2-.67-.34-1.03-.42-.38-.09-.64-.15-.79-.18h-.43Zm6.66.29v15.11c1.08.18,2.18.27,3.28.28,1.86.13,3.7-.39,5.23-1.45,1.5-1.21,2.15-3.75,2.15-6.38.07-2.07-.6-4.1-1.89-5.73-1.26-1.39-3.17-2.08-5.72-2.08-1.02,0-2.03.09-3.04.26Z"/><path d="m50.79,68.13h.43c.77,0,1.51-.3,2.06-.84.62-.62.95-1.48.9-2.36v-21.98c.11-.96-.27-1.91-1-2.53-.7-.48-1.53-.75-2.38-.75v-.34h10.15v.34c-.84.01-1.67.27-2.37.74-.76.62-1.15,1.58-1.04,2.55v21.25c-.09,1.12.3,2.22,1.08,3.04,1.03.57,2.21.83,3.39.74h2.74c.97.09,1.95-.04,2.86-.4,1.76-.99,2.79-3.88,3.22-4.88h.31s-1.45,5.75-1.45,5.75h-18.88v-.31Z"/><path d="m101.51,68.16v.28h-10.37v-.28c.83.03,1.65-.06,2.46-.25.58-.17.95-.74.86-1.34-.04-.55-.18-1.1-.41-1.6-.04-.06-.07-.14-.08-.21l-2.61-6.16h-11.51l-2.23,5.65c-.29.66-.47,1.37-.52,2.1-.08.57.18,1.14.67,1.45.59.28,1.24.4,1.9.37v.28h-7.46v-.28c.94-.03,1.84-.38,2.56-.99.74-.75,1.32-1.66,1.67-2.66l10.11-25.19,10.69,25.09c.35.9.83,1.74,1.43,2.5.33.43.77.77,1.28.98.51.15,1.03.24,1.56.27Zm-10.34-10.02l-5.72-13.52h-.08l-5.34,13.52h11.13Z"/><path d="m127.66,45.54c-3.65.92-2.09-6.77-10.06-6.47-1.77.02-3.51.38-5.14,1.06-1.58.69-3,1.71-4.15,2.98-1.22,1.46-2.15,3.13-2.76,4.93-.66,1.88-.99,3.87-.97,5.86-.02,1.94.3,3.86.94,5.69.59,1.69,1.52,3.24,2.74,4.55,1.17,1.26,2.59,2.25,4.17,2.92,1.67.68,3.46,1.01,5.26.99,1.8-.03,3.59-.34,5.3-.9,1.94-.61,3.72-1.63,5.22-3v1.13c-1.63,1.2-3.39,2.2-5.25,2.98-1.9.69-3.92,1.01-5.94.95-2.34.03-4.67-.4-6.85-1.26-1.95-.77-3.73-1.92-5.23-3.39-1.39-1.37-2.49-3-3.23-4.8-.73-1.74-1.1-3.61-1.1-5.5-.01-2.8.78-5.54,2.28-7.9,1.52-2.43,3.66-4.42,6.19-5.77,2.6-1.42,5.51-2.15,8.47-2.13,2.57.07,5.12.55,7.54,1.41,5,2.1,3.83,5.34,2.56,5.66Z"/><path d="m131.06,39.66v-.34h18.93v5.26h-.3c0-3.1-1.78-4.81-5.35-4.81h-6.62v13.9h5.82c1.07.09,2.14,0,3.18-.28.91-.34,1.33-1.57,1.46-2.8h.32v6.6h-.32c-.13-.75-.16-2.48-1.53-2.94-.94-.11-1.88-.16-2.82-.14h-6.1v10.58c-.02.85.14,1.69.47,2.47.32.57,1.07.85,2.25.85h4.72c.96.03,1.91-.12,2.8-.45.73-.41,1.33-1,1.75-1.72.54-.96.99-1.98,1.36-3.02h.27l-1.35,5.63h-18.92v-.32h.43c.73-.02,1.43-.28,1.98-.75.7-.62,1.06-1.53.97-2.45v-21.95c.02-.83-.21-1.64-.66-2.33-.54-.71-1.41-1.08-2.3-.99h-.43Z"/></g></svg>